<?xml version="1.0" encoding="utf-8"?>
<!-- Generator: Adobe Illustrator 27.9.0, SVG Export Plug-In . SVG Version: 6.00 Build 0)  -->
<svg version="1.1" id="Layer_1" xmlns="http://www.w3.org/2000/svg" xmlns:xlink="http://www.w3.org/1999/xlink" x="0px" y="0px"
	 viewBox="0 0 1024 1024" style="enable-background:new 0 0 1024 1024;" xml:space="preserve">
<g>
	<path d="M342.42,780.02c-0.77-28.06,5.06-55.16,12.4-81.99c7.03-25.68,11.06-51.93,15.43-78.12c5.45-32.65,16.29-63.58,30.61-93.31
		c1.69-3.51,1.46-4.9-1.99-6.79c-16.57-9.08-31.7-20.22-45.42-33.21c-2.32-2.19-3.95-1.43-6.09-0.25
		c-13.83,7.64-27.43,15.66-40.74,24.18c-2.09,1.34-4.28,2.56-6.54,3.59c-1.15,0.52-2.83,0.91-3.63-0.49
		c-0.94-1.65,0.24-2.73,1.64-3.6c6.76-4.23,13.44-8.62,20.27-12.74c8.4-5.07,16.85-10.04,25.43-14.8c2.8-1.55,3.24-2.48,0.87-4.94
		c-9.5-9.86-17.89-20.63-25.05-32.3c-1.56-2.54-2.89-3.34-5.93-2.23c-5.9,2.16-12.01,3.77-18.04,5.58c-0.95,0.28-1.92,0.52-2.9,0.65
		c-1.21,0.16-2.5,0-2.94-1.3c-0.6-1.78,0.88-2.24,2.15-2.68c5.97-2.04,11.88-4.28,17.93-6.02c3.77-1.08,4.92-2,2.74-6.12
		c-12.15-22.92-20.64-47.2-24.08-72.93c-3.97-29.66-0.14-58.72,9.2-87.05c2.19-6.63,4.47-13.19,5.34-20.14
		c0.2-1.64,0.47-3.41,0.06-4.95c-5.22-19.64-4.39-39.72-3.46-59.61c1.11-23.58,4.84-46.92,9.69-70.05c0.1-0.49,0.24-0.97,0.37-1.45
		c5.42-20.08,15.88-25.99,36.06-20.08c16.32,4.78,29.55,14.95,42.73,25.13c9.48,7.33,18.68,15.02,28.38,22.07
		c8.32,6.04,17.11,7.51,26.88,4.69c18.54-5.34,37.48-9.08,56.5-11.8c16.43-2.35,33.17-2.94,49.8-3.41c25.15-0.7,50.38-1.38,75.43,1
		c7.88,0.75,11.2-1.38,15.67-7.47c17.11-23.31,37.82-43.42,59.19-62.82c4.57-4.14,9.24-8.17,14.39-11.58
		c10.66-7.08,18.3-5.85,25.5,4.75c11.77,17.33,19.5,36.57,26.04,56.36c7.08,21.44,12.8,43.25,18.04,65.19
		c1.03,4.3,2.9,7.91,5.95,11.24c29.11,31.69,44.75,69.47,50.09,111.84c0.1,0.82,0.28,1.64,0.4,2.46c0.35,2.61-0.02,6.98,1.18,7.46
		c2.66,1.07,6.11,0.28,9.23,0.08c2.32-0.15,5.8-2.11,6.2,1.48c0.39,3.49-3.6,3.23-6.05,3.5c-9.65,1.07-9.75,0.99-9.89,10.69
		c-0.13,8.35-1.11,16.6-2.86,24.74c-0.7,3.25,0.13,4.04,3.32,3.83c7.47-0.49,14.96-0.69,22.45-0.98c1.97-0.08,4.62-0.44,4.7,2.27
		c0.08,2.58-2.5,2.71-4.51,2.68c-8.17-0.14-16.31,0.36-24.46,0.88c-2.61,0.17-3.88,1.1-4.58,3.47c-3.55,11.95-8.24,23.48-13.1,34.94
		c-1.39,3.26-0.31,3.5,2.51,3.5c12.99,0.03,25.98-0.17,38.94,1.18c6.94,0.72,13.89,1.25,20.84,1.85c1.46,0.13,2.67,0.56,2.8,2.23
		c0.15,1.8-1.34,2.12-2.58,2.5c-1.97,0.6-3.95,0.23-5.94-0.04c-18.86-2.59-37.83-2.88-56.82-2.79c-2.49,0.01-3.8,0.87-4.87,3.15
		c-16.58,35.13-41.97,62.91-72.44,86.39c-2.63,2.03-4.07,3.53-2.3,7.22c3.06,6.39,3.28,13.59,3.58,20.51
		c0.81,18.33,3.92,36.35,6.54,54.44c2.29,15.82,3.61,31.74,4.56,47.68c1.86,31.29,1.62,62.62,0.91,93.94
		c-0.03,1.35-0.11,2.59,0.77,3.79c11.02,14.97,12.39,32.2,11.67,49.93c-1.15,28.37-13.38,52.49-28.99,75.25
		c-5.36,7.81-11.14,15.35-16.99,22.81c-1.7,2.17-1.79,3.32,0.67,4.45c18.22,8.36,17.15,35.65-3.76,45.13
		c-8.87,4.02-18.18,6.44-27.77,7.4c-4.74,0.47-7.19,2.28-9.29,6.49c-8.38,16.75-21.72,26.26-40.97,25.57
		c-10.24-0.37-19.35-4.47-27.5-10.59c-2.26-1.7-4.31-2.22-7.29-1.62c-11.87,2.42-23.72,5.11-35.81,6.31
		c-1.69,0.17-2.62,1.02-3.59,2.29C553,979.87,525.86,981.8,508.43,962c-5.37-6.1-10.68-7.56-18.15-7.91
		c-29.78-1.38-56.18-12.44-80.17-29.7c-3.11-2.23-6.51-4.3-8.96-7.14c-3.43-3.98-7.05-3.72-11.56-2.67
		c-19.15,4.46-38.48,6.19-57.84,1.63c-11.78-2.77-21.4-8.43-23.91-21.67c-0.72-3.81-0.95-7.64,0.25-11.36
		c6.9-21.32,12.45-30.44,38.47-32.98c0.66-0.06,1.4,0.07,1.98-0.17c1.79-0.76,5.53,0.73,5.19-1.86c-0.36-2.76-0.57-6.31-5.75-7.16
		c-18.46-3.03-34.98-11.31-50.7-21.15c-46.65-29.2-73.17-71.72-83.09-125.35c-6.92-37.42-7.87-75.03-5.36-112.9
		c1.05-15.8,0.41-31.69-5.63-46.68c-5.09-12.63-17.96-15.65-28.55-7.09c-1.02,0.83-1.98,1.81-2.72,2.89
		c-0.79,1.15-2.41,2.38-1.16,3.91c1.11,1.37,2.49-0.06,3.64-0.42c3.01-0.93,5.86-2.08,9.19-1.44c13.88,2.7,17.76,11.7,10.05,23.57
		c-8.69,13.36-23.38,17.95-37.93,11.85c-13.77-5.77-21.75-20.86-18.53-35.44c1.96-8.91,4-17.85,8.81-25.78
		c8.24-13.59,20.81-20.21,36.23-21.64c30.15-2.8,49.4,12.14,58.81,39.46c10.15,29.44,13.64,59.83,11.61,90.92
		c-2.15,33.01-1.75,65.86,7.39,98.03c7.29,25.68,23.22,45.31,43.48,61.86c10.73,8.77,22.01,16.64,35.03,21.78
		c3.37,1.33,4.3,1.02,3.95-2.86C342.09,789.72,342.42,784.86,342.42,780.02z M495.66,943.32c-10.91-24.74-16.04-50.43-21.18-76.08
		c-5.14-25.65-11.38-51.05-18.02-76.41c3.67,1.18,5.16,3.8,6.33,6.48c1.74,3.94,3.34,7.97,4.57,12.09
		c9.35,31.3,18.57,62.65,27.9,93.96c4.13,13.86,8.45,27.64,16.66,39.81c2.09,3.1,3.87,4.39,6.56,0.63c1.64-2.29,3.68-4.3,5.48-6.48
		c1.41-1.71,2.94-2.83,5.09-1.24c2.4,1.77,1.65,3.73,0.11,5.57c-2.36,2.8-4.66,5.67-7.25,8.25c-1.64,1.64-1.39,2.65,0.22,3.94
		c4.09,3.26,8.55,5.62,13.76,6.6c2.59,0.49,3.76-0.46,4.07-2.88c0.47-3.65,0.49-7.25-0.5-10.89c-0.58-2.15-1.3-5.04,1.87-5.85
		c3.36-0.86,4.25,2.06,4.81,4.43c1.1,4.67,1.57,9.44,0.41,14.43c4.35-0.4,7.19-2.69,9.88-5.15c3.87-3.53,6.63-7.89,8.88-12.56
		c8.36-17.32,12.86-35.56,12.86-54.84c0-20.65-0.42-41.32,1.28-61.93c0.97-11.84,0.52-23.77,2.45-35.57
		c3.48,27.56,4.22,55.34,6.94,82.98c2.6-30.16,5.73-60.24,13.2-89.7c0.49,2.02,0.5,4,0.49,5.98c-0.08,25.83-0.2,51.66-0.22,77.49
		c-0.01,11.67,0.81,23.3,3,34.77c2.82,14.78,8.81,27.79,21.81,37.17c1.58-4.74,3-9.15,4.54-13.51c0.73-2.07,1.63-4.4,4.52-3.38
		c2.88,1.02,2.11,3.15,1.33,5.36c-1.38,3.91-2.38,7.95-3.79,11.85c-0.81,2.23-0.16,3.38,1.84,4.33c5.97,2.83,12.19,3.01,18.55,1.98
		c2.73-0.44,3.02-2.06,1.96-4.3c-1.21-2.55-2.48-5.09-3.52-7.71c-0.64-1.6-0.83-3.41,1.19-4.27c1.76-0.75,2.86,0.46,3.59,1.82
		c1.1,2.04,2.08,4.15,3.03,6.27c2.21,4.89,2.14,4.85,6.15,0.95c6.18-6.01,9.4-13.64,11.81-21.64
		c12.39-41.05,27.17-81.19,45.92-119.8c13.33-27.44,18.9-56.47,19.18-86.84c0.38-41.49,0.91-82.94-3.12-124.33
		c-1.71-17.55-1.96-35.24-3.08-52.86c-0.48-7.45-1.52-14.87-3.38-22.14c-0.71-2.77-1.62-3.75-4.29-1.69
		c-2.74,2.11-5.77,3.85-8.69,5.76c-3.44-6.04-3.51-6.14-0.18-8.46c25.59-17.75,47.48-39.7,69.91-61.07
		c9.49-9.04,15.88-19.93,20.6-32.01c1.38-3.52,0.99-4.65-3-4.32c-13.43,1.11-26.84,2.35-40.2,4.19c-2.38,0.33-6.1,2.47-6.59-1.36
		c-0.37-2.83,3.66-2.44,5.93-2.86c14.58-2.68,29.36-3.72,44.11-4.92c1.99-0.16,3.25-0.4,4.06-2.65
		c4.39-12.15,8.51-24.38,11.41-36.98c-1.63-0.78-3.08-0.34-4.54-0.05c-21.39,4.25-42.18,10.42-62.12,19.34
		c-1.81,0.81-3.71,1.46-5.62,2.03c-1.04,0.31-2-0.11-2.4-1.23c-0.37-1.07-0.04-1.95,1-2.48c1.03-0.53,2.07-1.07,3.12-1.56
		c21.92-10.33,44.94-17.14,68.75-21.38c2.36-0.42,3.62-1.16,4.01-3.47c1.77-10.36,2.59-20.79,2.4-31.31
		c-0.05-2.92-0.8-3.67-3.83-2.87c-9.64,2.52-19.16,5.4-28.46,8.92c-17.57,6.65-34.65,14.39-50.98,23.74
		c-1.69,0.97-4.14,3.34-5.65,0.95c-1.63-2.58,1.83-3.24,3.34-4.52c0.63-0.54,1.38-0.94,2.1-1.35c23.72-13.65,48.61-24.51,75.1-31.58
		c8.09-2.16,8.16-2.16,7.25-10.41c-3.51-31.93-13.94-61.43-31.72-88.19c-4.21-6.34-8.4-12.54-15.02-17.38
		c-3.87-2.83-6.6-9.32-7.45-15.31c-2.8-19.84-9.46-38.57-15.77-57.5c-7.1-21.28-14.39-42.44-23.79-62.81
		c-5.29-11.46-10.84-12.81-20.32-4.77c-13.99,11.88-26.48,25.33-39.06,38.66c-10.51,11.14-21.04,22.3-30,34.78
		c-1.28,1.79-4.02,3.93,0.22,5.75c0.97,0.42,1.11,1.63,0.55,2.63c-0.57,1.01-1.61,1.03-2.63,1.02c-10.29-0.17-20.58-0.2-30.86-0.54
		c-32.01-1.08-63.99-0.4-95.85,2.71c-23.49,2.29-46.66,6.83-69.64,12.25c-11.85,2.8-23.36,3.55-32.86-6.24
		c-0.34-0.35-0.8-0.6-1.21-0.88c-19.47-13.05-37.88-27.71-58.6-38.86c-5.56-3-11.17-6.13-17.46-7.06
		c-13.42-1.98-17.95,0.53-21.03,12.72c-0.24,0.96-0.5,1.93-0.66,2.91c-3.67,21.67-6.61,43.44-6.99,65.44
		c-0.28,16.3-1.34,32.71,1.16,48.9c1.81,11.74,4.67,23.26-3.12,33.99c-8.02,30.33-12.28,60.98-6.99,92.29
		c4.19,24.76,12.55,48.11,24.44,70.22c1.11,2.06,2.24,2.76,4.71,2.17c21.23-5.02,42.78-8.01,64.52-9.59c2.97-0.22,7.7-2,8.05,1.87
		c0.29,3.24-4.69,2.34-7.46,2.54c-20.92,1.54-41.59,4.76-62.1,9.09c-3.18,0.67-3.08,1.87-1.47,4.3c7.3,11,15.53,21.22,24.8,30.62
		c1.79,1.81,3.18,2.13,5.6,1.04c12.6-5.66,25.77-9.68,39.13-13.11c2.3-0.59,5.57-2.35,6.34,0.95c0.61,2.62-3.06,2.88-5.16,3.47
		c-12.14,3.42-24.11,7.3-35.84,11.96c-2.79,1.11-3.85,1.88-0.92,4.45c25.72,22.57,54.59,39.73,87.41,49.57
		c22.32,6.69,45.73,8.14,68.52,12.72c13.23,2.66,26.5,5.07,40.07,7.65c-0.64,0.39-0.91,0.7-1.18,0.7
		c-5.33-0.04-10.66-0.08-15.98-0.19c-29.14-0.6-58.22-1.82-86.82-8.16c-13.34-2.96-25.98-7.99-38.69-12.82
		c-1.97-0.75-3.98-2.05-5.54,1.47c-13,29.41-23.35,59.65-28.4,91.48c-4.53,28.55-9.04,57.07-16.67,85.02
		c-9.42,34.51-13.94,69.45-7.43,105.11c9.16,50.16,35.07,88.44,80.45,112.72C458.38,935.19,476.28,940.44,495.66,943.32z
		 M240.38,620.99c0.73-11.26,1.29-26.23-0.02-41.22c-1.74-19.96-5.12-39.53-13.05-58.07c-6.59-15.39-17.87-25.01-34.84-26.98
		c-22.75-2.64-43.13,8.34-48.85,32.6c-2.89,12.26,1.85,24.12,11.91,30.45c9.85,6.2,24.25,3.65,29.33-5.18
		c1.51-2.62,2.28-5.23,0.07-7.84c-1.99-2.35-4.48-1.69-6.9-0.91c-2.38,0.76-4.71,1.55-7.27,1.58c-7.62,0.09-11.7-4.56-10.64-12.07
		c0.36-2.55,1.28-4.84,2.66-6.91c6.66-9.93,16.28-14.15,27.88-12.99c11.16,1.12,16.98,9.05,20.48,18.78
		c4.26,11.84,5.56,24.26,6.09,36.73c0.62,14.84-0.99,29.62-1.68,44.42c-0.97,20.84,0.17,41.66,1.99,62.39
		c1.73,19.74,5.24,39.19,13.29,57.53c17.27,39.31,47.11,66.27,84.47,85.77c9.3,4.85,19.1,8.47,29.4,10.71
		c3.27,0.71,3.84,0.16,2.84-3.02c-1.04-3.31-1.7-6.77-2.18-10.21c-0.53-3.82-1.72-6.33-6.23-6.76c-2.86-0.27-5.64-1.86-8.36-3.09
		c-15.94-7.24-29.58-17.84-42.66-29.25c-24.84-21.68-39.22-48.86-44.02-81.52C240.63,672.26,240.06,648.53,240.38,620.99z
		 M385.8,902.31c-7.58-9.52-15.61-17.89-19.49-28.22c-4.91-13.06-13.22-15.89-25.39-12.85c-0.48,0.12-1.01,0.01-1.49,0.11
		c-5.09,1.12-10.26,2.08-14.55,6.22c4.42,2.42,8.95,2.61,13.21,3.69c2.13,0.54,3.93,1.25,3.51,3.89c-0.44,2.75-2.58,2.61-4.64,2.45
		c-5-0.39-9.95-1.3-14.44-3.49c-3.03-1.47-3.97-0.27-5.18,2.2c-3.07,6.25-2.05,12.21,0.59,18.24c1.06,2.42,2.37,2.79,4.61,1.5
		c3.48-2.01,7.46-2.69,11.25-3.89c2.69-0.85,5.42-1.1,6.23,1.9c0.97,3.62-2.61,3.51-4.81,4.19c-3.19,0.98-6.67,1.19-9.91,4
		C345.64,908.2,365.3,906.13,385.8,902.31z M756.32,746.53c-2.74,23.76-12.08,45.16-22.21,66.26
		c-9.84,20.49-19.43,41.09-27.76,62.25c-0.34,0.85-1.63,1.77-0.28,3.14c6.58-6.92,12.94-13.94,18.44-21.68
		c15.84-22.29,31.05-44.93,34.29-73.1C760.22,771.02,760.1,758.66,756.32,746.53z M691.49,918.92c11.59,0.84,30.44-4.79,34.91-10.54
		c-4.16,0-8.1-0.02-12.04,0.01c-2.71,0.01-6.5,1.1-6.58-3c-0.09-4.26,3.98-3,6.51-3.13c4.31-0.23,8.64-0.17,12.96-0.02
		c2.57,0.09,4.49-0.38,5.58-3.03c1.2-2.91-0.03-5.09-1.58-7.35c-1.54-2.25-3.38-2.1-5.64-1.26c-2,0.74-4.14,1.16-6.25,1.52
		c-1.92,0.33-3.81,0.08-4.3-2.27c-0.52-2.49,1.2-3.58,3.15-4.36c1.47-0.59,3.24,0.31,4.78-0.93c-2.72-3.39-5.32-3.95-8.52-0.65
		c-4.28,4.42-8.8,8.59-13.17,12.92c-1.62,1.61-3.89,2.66-4.63,5.07C694.93,907.55,693.22,913.21,691.49,918.92z M577.36,943.02
		c9.1-1.65,17.33-3.15,26.08-4.74c-8.74-12.82-11.94-26.97-14.31-41.5C588.72,912.81,584.12,927.58,577.36,943.02z"/>
	<path d="M677.3,237.01c26.27-0.03,47.92,13.61,55.9,34.06c11.23,28.74-6.05,60.25-36.93,68.12
		c-40.66,10.37-66.18-20.09-70.71-46.76c-2.7-15.94,8.66-45.95,35.84-53.1C667.24,237.8,673.12,236.89,677.3,237.01z M655.11,281.72
		c8.37-0.51,15.57-1.77,21.96-5.7c6.98-4.3,9.01-12.09,5.23-19.04c-3.92-7.2-13.4-11.08-20-7.5c-9.18,4.98-15.23,12.81-17.79,22.99
		c-1.28,5.08,1.33,8.28,6.62,8.96C652.77,281.64,654.44,281.67,655.11,281.72z"/>
	<path d="M455.71,268.95c15.83,1.24,31.76,10.65,42.53,27.61c9.93,15.64,6.92,34.79-7.66,49.64
		c-16.98,17.29-37.94,23.45-61.63,18.07c-17.64-4-30.34-20.17-32.76-37.99C391.06,288.64,425.96,268.66,455.71,268.95z
		 M420.62,311.41c11.84,0.07,21.19-10.03,21.91-23.68c0.38-7.18-1.69-9.66-8.81-10.36c-11.73-1.16-18.39,6.3-23.83,14.88
		C403.07,303.01,407.95,311.33,420.62,311.41z"/>
	<path d="M572.8,375.12c-5.99,22.51-29.62,32.83-49.07,21.99c-1.15-0.64-2.29-1.37-3.29-2.22c-2.35-2-3.91-4.5-1.62-7.3
		c2.18-2.68,4.56-1.39,6.99,0.29c15.5,10.74,35.99,2.01,39.01-16.5c0.61-3.75-0.41-6.91-2.66-9.76c-3.92-4.96-7.78-9.98-11.9-14.77
		c-2.57-2.99-1.85-4.71,1.24-6.63c6.29-3.91,13.12-4.52,20.19-3.79c3.62,0.38,7.23,1.08,10.78,1.92c3.75,0.88,5.39,2.79,3.15,6.83
		c-2.82,5.08-5.12,10.45-7.83,15.6c-1.3,2.48-1.07,4.57,0.18,6.99c5.32,10.29,14.48,14.66,25.26,15.15
		c9.46,0.43,16.94-4.1,21.48-12.79c1.23-2.35,3-3.69,5.66-2.15c2.55,1.47,3.27,3.71,1.9,6.37c-5.33,10.29-13.95,15.96-25.36,16.87
		C592.95,392.34,581.61,387.07,572.8,375.12z"/>
	<path d="M703.11,562.68c3.01-6.79,2.21-13.4,3.12-19.73c0.35-2.43-0.15-5.37,3.13-5.99c2.81-0.53,4,1.77,5.18,3.83
		c1.39,2.41,2.85,4.79,4.6,7.72c2.12-5.17,0.41-10.26,2.83-15.55c2.56,7.37,3.84,14.19,2.46,21.21c-0.74,3.78-4.91,4.56-7.69,1.63
		c-1.45-1.53-2.5-3.44-3.98-5.54c-1.87,3.94-1.1,8.03-2.44,11.67c-1.21,3.28-1.98,6.92-6.31,7.42c-4.56,0.53-6.39-2.81-8.09-6.13
		c-2.06-4.01-3.4-8.28-4.06-12.75c-0.29-1.99,0.16-3.74,2.51-4.11c2.21-0.35,2.74,1.27,3.25,2.97
		C698.93,553.69,699.3,558.45,703.11,562.68z"/>
	<path d="M319.32,394.99c8.9-4.96,18.45-7.02,28.06-8.49c22.52-3.44,45.02-3.48,67.33,1.85c2.52,0.6,6.97,0.52,6.11,4.06
		c-0.69,2.86-4.79,1.09-7.15,0.56c-25.04-5.63-50.14-4.76-75.28-1C332.02,392.92,325.67,393.98,319.32,394.99z"/>
</g>
</svg>
